<svg xmlns="http://www.w3.org/2000/svg" width="16" height="16" viewBox="0 0 16 16" fill="none">
  <g clip-path="url(#clip0_2008_13550)">
    <path fill-rule="evenodd" clip-rule="evenodd" d="M15.0933 6.55238C15.1878 7.02019 15.2381 7.504 15.2381 8C15.2381 11.9947 11.9947 15.2381 8 15.2381C4.00533 15.2381 0.761905 11.9947 0.761905 8C0.761905 4.00533 4.00533 0.761905 8 0.761905C8.496 0.761905 8.97981 0.812191 9.44762 0.906667C9.65409 0.948572 9.85524 0.815238 9.89714 0.609524C9.93905 0.403809 9.80571 0.201905 9.6 0.16C9.08267 0.0548572 8.54781 0 8 0C3.58476 0 0 3.58476 0 8C0 12.4152 3.58476 16 8 16C12.4152 16 16 12.4152 16 8C16 7.45219 15.9451 6.91733 15.84 6.4C15.7981 6.19429 15.5962 6.06095 15.3905 6.10286C15.1848 6.14476 15.0514 6.34591 15.0933 6.55238Z" fill="black"/>
    <path fill-rule="evenodd" clip-rule="evenodd" d="M13.314 0.380952L13.3125 4.19048C13.3125 4.40076 13.4832 4.57143 13.6935 4.57143C13.9037 4.57143 14.0744 4.40076 14.0744 4.19048L14.0759 0.380952C14.0759 0.170667 13.9053 0 13.695 0C13.4847 0 13.314 0.170667 13.314 0.380952Z" fill="black"/>
    <path fill-rule="evenodd" clip-rule="evenodd" d="M11.8185 2.66815L15.628 2.66968C15.8383 2.66968 16.0089 2.49901 16.0089 2.28873C16.0089 2.07844 15.8383 1.90777 15.628 1.90777L11.8185 1.90625C11.6082 1.90625 11.4375 2.07692 11.4375 2.2872C11.4375 2.49749 11.6082 2.66815 11.8185 2.66815Z" fill="black"/>
    <path fill-rule="evenodd" clip-rule="evenodd" d="M4.5625 4.19345V11.8125C4.5625 12.0228 4.73317 12.1935 4.94345 12.1935C5.15374 12.1935 5.3244 12.0228 5.3244 11.8125V4.19345C5.3244 3.98317 5.15374 3.8125 4.94345 3.8125C4.73317 3.8125 4.5625 3.98317 4.5625 4.19345Z" fill="black"/>
    <path fill-rule="evenodd" clip-rule="evenodd" d="M11.8214 9.52195C11.8214 9.01681 11.621 8.53224 11.2637 8.1749C10.9064 7.81757 10.4218 7.61719 9.91667 7.61719C9.666 7.61719 9.40543 7.61719 9.15476 7.61719C8.64962 7.61719 8.16505 7.81757 7.80771 8.1749C7.45038 8.53224 7.25 9.01681 7.25 9.52195V10.2839C7.25 10.789 7.45038 11.2736 7.80771 11.6309C8.16505 11.9882 8.64962 12.1886 9.15476 12.1886H9.91667C10.4218 12.1886 10.9064 11.9882 11.2637 11.6309C11.621 11.2736 11.8214 10.789 11.8214 10.2839V9.52195ZM11.0595 9.52195V10.2839C11.0595 10.5871 10.9391 10.8774 10.725 11.0922C10.5102 11.3063 10.2199 11.4267 9.91667 11.4267H9.15476C8.85152 11.4267 8.56124 11.3063 8.34638 11.0922C8.13229 10.8774 8.0119 10.5871 8.0119 10.2839V9.52195C8.0119 9.21871 8.13229 8.92843 8.34638 8.71357C8.56124 8.49947 8.85152 8.37909 9.15476 8.37909H9.91667C10.2199 8.37909 10.5102 8.49947 10.725 8.71357C10.9391 8.92843 11.0595 9.21871 11.0595 9.52195Z" fill="black"/>
    <path fill-rule="evenodd" clip-rule="evenodd" d="M11.8214 5.71726C11.8214 5.21212 11.621 4.72755 11.2637 4.37021C10.9064 4.01288 10.4218 3.8125 9.91667 3.8125C9.666 3.8125 9.40543 3.8125 9.15476 3.8125C8.64962 3.8125 8.16505 4.01288 7.80771 4.37021C7.45038 4.72755 7.25 5.21212 7.25 5.71726V6.47917C7.25 6.98431 7.45038 7.46888 7.80771 7.82621C8.16505 8.18355 8.64962 8.38393 9.15476 8.38393H9.91667C10.4218 8.38393 10.9064 8.18355 11.2637 7.82621C11.621 7.46888 11.8214 6.98431 11.8214 6.47917V5.71726ZM11.0595 5.71726V6.47917C11.0595 6.7824 10.9391 7.07269 10.725 7.28755C10.5102 7.50164 10.2199 7.62202 9.91667 7.62202H9.15476C8.85152 7.62202 8.56124 7.50164 8.34638 7.28755C8.13229 7.07269 8.0119 6.7824 8.0119 6.47917V5.71726C8.0119 5.41402 8.13229 5.12374 8.34638 4.90888C8.56124 4.69479 8.85152 4.5744 9.15476 4.5744H9.91667C10.2199 4.5744 10.5102 4.69479 10.725 4.90888C10.9391 5.12374 11.0595 5.41402 11.0595 5.71726Z" fill="black"/>
  </g>
  <defs>
    <clipPath id="clip0_2008_13550">
      <rect width="16" height="16" fill="white"/>
    </clipPath>
  </defs>
</svg>