<svg xmlns="http://www.w3.org/2000/svg" width="16" height="16" viewBox="0 0 16 16" fill="none">
  <path d="M8 0.125C4.48481 0.125 1.625 2.98481 1.625 6.5C1.625 7.58866 1.95525 8.75984 2.60663 9.98125C3.11822 10.9405 3.82916 11.9348 4.71972 12.9368C6.22747 14.6328 7.7125 15.7531 7.775 15.8C7.83991 15.8487 7.91886 15.875 8 15.875C8.08114 15.875 8.16009 15.8487 8.225 15.8C8.2875 15.7531 9.77253 14.6328 11.2803 12.9367C12.1709 11.9347 12.8818 10.9404 13.3934 9.98116C14.0448 8.75984 14.375 7.58866 14.375 6.5C14.375 2.98481 11.5152 0.125 8 0.125ZM10.7286 12.4284C9.89047 13.3655 8.97796 14.2334 8 15.0236C7.02204 14.2334 6.10954 13.3655 5.27141 12.4284C3.95 10.9399 2.375 8.70312 2.375 6.5C2.375 3.39838 4.89838 0.875 8 0.875C11.1016 0.875 13.625 3.39838 13.625 6.5C13.625 8.70312 12.05 10.9399 10.7286 12.4284Z" fill="black"/>
  <path d="M11.6575 9.71925C12.4421 8.83039 12.8751 7.68559 12.875 6.5C12.875 3.81191 10.6881 1.625 8 1.625C5.31191 1.625 3.125 3.81191 3.125 6.5C3.12507 6.67755 3.13478 6.85497 3.15409 7.03147C3.42116 9.47706 5.4985 11.3759 8 11.375C8.6924 11.3754 9.37691 11.2279 10.0077 10.9424C10.6385 10.6568 11.201 10.2398 11.6575 9.71925ZM8.125 9.125H7.875V8.375H8.125V9.125ZM8.5 7.625H7.5C7.40054 7.625 7.30516 7.66451 7.23484 7.73484C7.16451 7.80516 7.125 7.90054 7.125 8V9.125H6.375V3.875H9.625V9.125H8.875V8C8.875 7.90054 8.83549 7.80516 8.76517 7.73484C8.69484 7.66451 8.59946 7.625 8.5 7.625ZM4.82034 9.125C4.40058 8.61819 4.10854 8.01806 3.96875 7.375H5.625V9.125H4.82034ZM10.375 9.125V7.375H12.0312C11.8915 8.01806 11.5994 8.61819 11.1796 9.125H10.375ZM8 2.375C10.2745 2.375 12.125 4.22547 12.125 6.5C12.125 6.54184 12.1242 6.58347 12.1229 6.625H10.375V3.5C10.375 3.40054 10.3355 3.30516 10.2652 3.23483C10.1948 3.16451 10.0995 3.125 10 3.125H6C5.90054 3.125 5.80516 3.16451 5.73484 3.23483C5.66451 3.30516 5.625 3.40054 5.625 3.5V6.625H3.87706C3.87581 6.58347 3.875 6.54184 3.875 6.5C3.875 4.22547 5.72547 2.375 8 2.375ZM5.63106 9.875H10.3689C9.6754 10.3631 8.84805 10.625 8 10.625C7.15195 10.625 6.3246 10.3631 5.63106 9.875Z" fill="black"/>
  <path d="M11 7.625C10.9005 7.625 10.8052 7.66451 10.7348 7.73484C10.6645 7.80516 10.625 7.90054 10.625 8V8.5C10.625 8.59946 10.6645 8.69484 10.7348 8.76517C10.8052 8.83549 10.9005 8.875 11 8.875C11.0995 8.875 11.1948 8.83549 11.2652 8.76517C11.3355 8.69484 11.375 8.59946 11.375 8.5V8C11.375 7.90054 11.3355 7.80516 11.2652 7.73484C11.1948 7.66451 11.0995 7.625 11 7.625Z" fill="black"/>
  <path d="M5 7.625C4.90054 7.625 4.80516 7.66451 4.73484 7.73484C4.66451 7.80516 4.625 7.90054 4.625 8V8.5C4.625 8.59946 4.66451 8.69484 4.73484 8.76517C4.80516 8.83549 4.90054 8.875 5 8.875C5.09946 8.875 5.19484 8.83549 5.26516 8.76517C5.33549 8.69484 5.375 8.59946 5.375 8.5V8C5.375 7.90054 5.33549 7.80516 5.26516 7.73484C5.19484 7.66451 5.09946 7.625 5 7.625Z" fill="black"/>
  <path d="M8 4.125C7.90054 4.125 7.80516 4.16451 7.73484 4.23484C7.66451 4.30516 7.625 4.40054 7.625 4.5V5C7.625 5.09946 7.66451 5.19484 7.73484 5.26516C7.80516 5.33549 7.90054 5.375 8 5.375C8.09946 5.375 8.19484 5.33549 8.26517 5.26516C8.33549 5.19484 8.375 5.09946 8.375 5V4.5C8.375 4.40054 8.33549 4.30516 8.26517 4.23484C8.19484 4.16451 8.09946 4.125 8 4.125Z" fill="black"/>
  <path d="M8 6.125C7.90054 6.125 7.80516 6.16451 7.73484 6.23484C7.66451 6.30516 7.625 6.40054 7.625 6.5V7C7.625 7.09946 7.66451 7.19484 7.73484 7.26516C7.80516 7.33549 7.90054 7.375 8 7.375C8.09946 7.375 8.19484 7.33549 8.26517 7.26516C8.33549 7.19484 8.375 7.09946 8.375 7V6.5C8.375 6.40054 8.33549 6.30516 8.26517 6.23484C8.19484 6.16451 8.09946 6.125 8 6.125Z" fill="black"/>
  <path d="M9 5.375C9.09946 5.375 9.19484 5.33549 9.26517 5.26516C9.33549 5.19484 9.375 5.09946 9.375 5V4.5C9.375 4.40054 9.33549 4.30516 9.26517 4.23484C9.19484 4.16451 9.09946 4.125 9 4.125C8.90054 4.125 8.80516 4.16451 8.73483 4.23484C8.66451 4.30516 8.625 4.40054 8.625 4.5V5C8.625 5.09946 8.66451 5.19484 8.73483 5.26516C8.80516 5.33549 8.90054 5.375 9 5.375Z" fill="black"/>
  <path d="M9.375 7V6.5C9.375 6.40054 9.33549 6.30516 9.26517 6.23484C9.19484 6.16451 9.09946 6.125 9 6.125C8.90054 6.125 8.80516 6.16451 8.73483 6.23484C8.66451 6.30516 8.625 6.40054 8.625 6.5V7C8.625 7.09946 8.66451 7.19484 8.73483 7.26516C8.80516 7.33549 8.90054 7.375 9 7.375C9.09946 7.375 9.19484 7.33549 9.26517 7.26516C9.33549 7.19484 9.375 7.09946 9.375 7Z" fill="black"/>
  <path d="M7 4.125C6.90054 4.125 6.80516 4.16451 6.73484 4.23484C6.66451 4.30516 6.625 4.40054 6.625 4.5V5C6.625 5.09946 6.66451 5.19484 6.73484 5.26516C6.80516 5.33549 6.90054 5.375 7 5.375C7.09946 5.375 7.19484 5.33549 7.26516 5.26516C7.33549 5.19484 7.375 5.09946 7.375 5V4.5C7.375 4.40054 7.33549 4.30516 7.26516 4.23484C7.19484 4.16451 7.09946 4.125 7 4.125Z" fill="black"/>
  <path d="M7 6.125C6.90054 6.125 6.80516 6.16451 6.73484 6.23484C6.66451 6.30516 6.625 6.40054 6.625 6.5V7C6.625 7.09946 6.66451 7.19484 6.73484 7.26516C6.80516 7.33549 6.90054 7.375 7 7.375C7.09946 7.375 7.19484 7.33549 7.26516 7.26516C7.33549 7.19484 7.375 7.09946 7.375 7V6.5C7.375 6.40054 7.33549 6.30516 7.26516 6.23484C7.19484 6.16451 7.09946 6.125 7 6.125Z" fill="black"/>
</svg>