<svg xmlns="http://www.w3.org/2000/svg" width="16" height="16" viewBox="0 0 16 16" fill="none">
  <path d="M14.6454 12.22C14.6454 12.46 14.592 12.7067 14.4787 12.9467C14.3654 13.1867 14.2187 13.4133 14.0254 13.6267C13.6987 13.9867 13.3387 14.2467 12.932 14.4133C12.532 14.58 12.0987 14.6667 11.632 14.6667C10.952 14.6667 10.2254 14.5067 9.4587 14.18C8.69203 13.8533 7.92536 13.4133 7.16536 12.86C6.3987 12.3 5.67203 11.68 4.9787 10.9933C4.29203 10.3 3.67203 9.57333 3.1187 8.81333C2.57203 8.05333 2.13203 7.29333 1.81203 6.53999C1.49203 5.77999 1.33203 5.05333 1.33203 4.35999C1.33203 3.90666 1.41203 3.47333 1.57203 3.07333C1.73203 2.66666 1.98536 2.29333 2.3387 1.95999C2.76536 1.53999 3.23203 1.33333 3.72536 1.33333C3.91203 1.33333 4.0987 1.37333 4.26536 1.45333C4.4387 1.53333 4.59203 1.65333 4.71203 1.82666L6.2587 4.00666C6.3787 4.17333 6.46536 4.32666 6.52536 4.47333C6.58536 4.61333 6.6187 4.75333 6.6187 4.87999C6.6187 5.03999 6.57203 5.19999 6.4787 5.35333C6.39203 5.50666 6.26536 5.66666 6.10536 5.82666L5.5987 6.35333C5.52536 6.42666 5.49203 6.51333 5.49203 6.61999C5.49203 6.67333 5.4987 6.71999 5.51203 6.77333C5.53203 6.82666 5.55203 6.86666 5.56536 6.90666C5.68536 7.12666 5.89203 7.41333 6.18536 7.75999C6.48536 8.10666 6.80536 8.45999 7.15203 8.81333C7.51203 9.16666 7.8587 9.49333 8.21203 9.79333C8.5587 10.0867 8.84536 10.2867 9.07203 10.4067C9.10536 10.42 9.14536 10.44 9.19203 10.46C9.24536 10.48 9.2987 10.4867 9.3587 10.4867C9.47203 10.4867 9.5587 10.4467 9.63203 10.3733L10.1387 9.87333C10.3054 9.70666 10.4654 9.57999 10.6187 9.49999C10.772 9.40666 10.9254 9.35999 11.092 9.35999C11.2187 9.35999 11.352 9.38666 11.4987 9.44666C11.6454 9.50666 11.7987 9.59333 11.9654 9.70666L14.172 11.2733C14.3454 11.3933 14.4654 11.5333 14.5387 11.7C14.6054 11.8667 14.6454 12.0333 14.6454 12.22Z" stroke="black" stroke-miterlimit="10"/>
</svg>