<svg xmlns="http://www.w3.org/2000/svg" width="16" height="16" viewBox="0 0 16 16" fill="none">
  <g clip-path="url(#clip0_2008_13514)">
    <path d="M14.5929 6.12486H12.7179V4.71861C12.7179 4.71852 12.7179 4.71842 12.7179 4.71833C12.7179 4.71827 12.7179 4.71824 12.7179 4.71817C12.7179 4.71767 12.7179 4.71717 12.7179 4.71664C12.7177 4.56533 12.6909 4.40155 12.6363 4.24777C13.7103 4.29405 14.5929 3.43283 14.5929 2.37487C14.5929 1.34099 13.7518 0.49987 12.7179 0.49987C11.6841 0.49987 10.8429 1.34099 10.8429 2.37487C10.8429 2.48734 10.8535 2.59733 10.8725 2.70443L9.05167 1.44381C9.04923 1.44212 9.0468 1.44046 9.04433 1.43881C8.48823 1.06918 7.74224 1.14324 7.27055 1.61493L5.16118 3.7243C4.61293 4.27255 4.61293 5.16464 5.16118 5.71289C5.7094 6.26114 6.60149 6.26117 7.14977 5.71289L8.43383 4.42883L9.11917 4.92255L6.56743 7.47429L0.942437 13.0993C0.394188 13.6475 0.394188 14.5396 0.942437 15.0879C1.49206 15.6375 2.38131 15.6376 2.93103 15.0879L7.56171 10.4572L8.38561 11.2811L6.56743 13.0993C6.01777 13.6489 6.01768 14.5382 6.56743 15.0879C7.11705 15.6375 8.0063 15.6376 8.55602 15.0879L11.3685 12.2754C11.9182 11.7257 11.9183 10.8365 11.3685 10.2868L9.5503 8.46861L9.9947 8.02423C10.1949 8.55714 10.7097 8.93735 11.3117 8.93735H14.593C15.3684 8.93735 15.9992 8.30651 15.9992 7.53111C15.9992 6.7557 15.3683 6.12486 14.5929 6.12486ZM12.7179 1.43737C13.2349 1.43737 13.6554 1.85793 13.6554 2.37487C13.6554 2.8918 13.2349 3.31237 12.7179 3.31237C12.201 3.31237 11.7804 2.8918 11.7804 2.37487C11.7804 1.85793 12.201 1.43737 12.7179 1.43737ZM8.6583 3.43511C8.47183 3.30077 8.21536 3.32146 8.05286 3.48399L6.48686 5.04999C6.30358 5.23324 6.0074 5.2333 5.82408 5.04999C5.64137 4.86727 5.64137 4.56996 5.82408 4.38721L7.93345 2.27784C8.08983 2.12149 8.33689 2.0964 8.52236 2.21759L10.4889 3.57905C10.4279 3.6229 10.3704 3.6713 10.3172 3.72458L9.79083 4.25093L8.6583 3.43511ZM2.26809 14.425C2.08481 14.6082 1.78862 14.6083 1.60531 14.425C1.42259 14.2423 1.42259 13.9449 1.60531 13.7622L6.2924 9.07514C6.36043 9.21717 6.45274 9.34823 6.56743 9.46288L6.8988 9.79426L2.26809 14.425ZM14.5929 7.99986H11.3117C11.0532 7.99986 10.8429 7.78958 10.8429 7.53111V6.9818C10.8429 6.7922 10.7288 6.62126 10.5536 6.54873C10.3785 6.4762 10.1768 6.51626 10.0427 6.65033L8.55592 8.13714C8.37286 8.3202 8.37286 8.61698 8.55592 8.80004L10.7056 10.9497C10.8889 11.133 10.8889 11.4292 10.7056 11.6124L7.89308 14.4249C7.7098 14.6082 7.41364 14.6082 7.2303 14.4249C7.04702 14.2417 7.04699 13.9455 7.2303 13.7622L9.37995 11.6125C9.56301 11.4295 9.56301 11.1327 9.37995 10.9496L7.2303 8.79998C7.04758 8.61726 7.04758 8.31995 7.2303 8.13723L10.9803 4.3873C11.2724 4.09486 11.7797 4.30439 11.7804 4.71796C11.7804 4.71833 11.7804 4.71871 11.7804 4.71908V6.59364C11.7804 6.85251 11.9903 7.06239 12.2492 7.06239H14.5929C14.8514 7.06239 15.0617 7.27267 15.0617 7.53114C15.0617 7.78961 14.8514 7.99986 14.5929 7.99986Z" fill="black"/>
    <path d="M3.81249 2.37487H1.46875C1.20987 2.37487 1 2.58474 1 2.84362C1 3.10249 1.20987 3.31237 1.46875 3.31237H3.81249C4.07137 3.31237 4.28124 3.10249 4.28124 2.84362C4.28124 2.58474 4.07137 2.37487 3.81249 2.37487Z" fill="black"/>
    <path d="M3.81249 6.12486H1.46875C1.20987 6.12486 1 6.33474 1 6.59361C1 6.85249 1.20987 7.06236 1.46875 7.06236H3.81249C4.07137 7.06236 4.28124 6.85249 4.28124 6.59361C4.28124 6.33474 4.07137 6.12486 3.81249 6.12486Z" fill="black"/>
    <path d="M2.87499 4.24987H0.468749C0.209875 4.24987 0 4.45974 0 4.71862C0 4.97749 0.209875 5.18737 0.468749 5.18737H2.87499C3.13387 5.18737 3.34374 4.97749 3.34374 4.71862C3.34374 4.45974 3.13387 4.24987 2.87499 4.24987Z" fill="black"/>
  </g>
  <defs>
    <clipPath id="clip0_2008_13514">
      <rect width="16" height="16" fill="white"/>
    </clipPath>
  </defs>
</svg>